<?xml version="1.0" encoding="UTF-8"?>
<svg width="18px" height="18px" viewBox="0 0 18 18" version="1.1" xmlns="http://www.w3.org/2000/svg" xmlns:xlink="http://www.w3.org/1999/xlink">
    <!-- Generator: Sketch 45 (43475) - http://www.bohemiancoding.com/sketch -->
    <title>Group 4</title>
    <desc>Created with Sketch.</desc>
    <defs>
        <linearGradient x1="26.2276411%" y1="82.7333631%" x2="131.910932%" y2="-17.1376272%" id="linearGradient-1">
            <stop stop-color="#E53656" offset="0%"></stop>
            <stop stop-color="#6082D8" offset="100%"></stop>
        </linearGradient>
    </defs>
    <g id="Page-1" stroke="none" stroke-width="1" fill="none" fill-rule="evenodd">
        <g id="Стартовая" transform="translate(-247.000000, -594.000000)" fill="url(#linearGradient-1)">
            <g id="Ссылки" transform="translate(100.000000, 182.000000)">
                <g id="Додайте-проект" transform="translate(0.000000, 334.000000)">
                    <g id="Додати-проект" transform="translate(1.000000, 77.000000)">
                        <g id="Group-4" transform="translate(146.000000, 1.000000)">
                            <path d="M18,9 C18,13.9627059 13.9627059,18 9,18 C4.03729412,18 0,13.9627059 0,9 C0,4.03729412 4.03729412,0 9,0 C13.9627059,0 18,4.03729412 18,9 Z M16.8823529,8.94117647 C16.8823529,4.56188235 13.3204706,1 8.94117647,1 C4.56188235,1 1,4.56188235 1,8.94117647 C1,13.3204706 4.56188235,16.8823529 8.94117647,16.8823529 C13.3204706,16.8823529 16.8823529,13.3204706 16.8823529,8.94117647 Z" id="Shape" fill-rule="nonzero"></path>
                            <rect id="Rectangle-18" x="8.5" y="4" width="1" height="10"></rect>
                            <rect id="Rectangle-18-Copy" transform="translate(9.000000, 9.000000) rotate(90.000000) translate(-9.000000, -9.000000) " x="8.5" y="4" width="1" height="10"></rect>
                        </g>
                    </g>
                </g>
            </g>
        </g>
    </g>
</svg>