<?xml version="1.0" encoding="UTF-8"?>
<svg width="18px" height="18px" viewBox="0 0 18 18" version="1.1" xmlns="http://www.w3.org/2000/svg" xmlns:xlink="http://www.w3.org/1999/xlink">
    <!-- Generator: Sketch 45 (43475) - http://www.bohemiancoding.com/sketch -->
    <title>Shape</title>
    <desc>Created with Sketch.</desc>
    <defs></defs>
    <g id="Page-1" stroke="none" stroke-width="1" fill="none" fill-rule="evenodd">
        <g id="Стартовая" transform="translate(-1126.000000, -28.000000)" fill-rule="nonzero" fill="#C5D5E6">
            <path d="M1144,45.2324741 L1138.39207,39.6245483 C1139.44905,38.3919537 1140.09299,36.7940255 1140.09299,35.0464948 C1140.09299,31.161166 1136.93182,28 1133.0465,28 C1131.16454,28 1129.39424,28.7328355 1128.06191,30.0629969 C1126.73175,31.3942424 1125.99892,33.1645387 1126,35.0464948 C1126,38.9318237 1129.16117,42.0929896 1133.0465,42.0929896 C1134.79403,42.0929896 1136.39304,41.4490484 1137.62563,40.3920742 L1143.23356,46 L1144,45.2324741 Z M1133.0465,41.0089135 C1129.75958,41.0089135 1127.08408,38.3344977 1127.08408,35.0464948 C1127.08299,33.4529029 1127.70308,31.9557938 1128.82944,30.8305228 C1129.95471,29.7041677 1131.4529,29.0840761 1133.0465,29.0840761 C1136.33341,29.0840761 1139.00891,31.7584919 1139.00891,35.0464948 C1139.00891,38.3334136 1136.33341,41.0089135 1133.0465,41.0089135 Z" id="Shape"></path>
        </g>
    </g>
</svg>