<?xml version="1.0" encoding="UTF-8"?>
<svg width="20px" height="16px" viewBox="0 0 20 16" version="1.1" xmlns="http://www.w3.org/2000/svg" xmlns:xlink="http://www.w3.org/1999/xlink">
    <!-- Generator: Sketch 45 (43475) - http://www.bohemiancoding.com/sketch -->
    <title>Shape</title>
    <desc>Created with Sketch.</desc>
    <defs></defs>
    <g id="Page-1" stroke="none" stroke-width="1" fill="none" fill-rule="evenodd">
        <g id="Стартовая" transform="translate(-227.000000, -755.000000)" fill-rule="nonzero" fill="#C5D5E6">
            <g id="Соц" transform="translate(100.000000, 753.000000)">
                <path d="M144.268319,6.40645322 C144.268319,11.6161367 140.301945,17.6199999 133.053641,17.6199999 C130.820435,17.6199999 128.745612,16.9728905 127,15.8506307 C127.317898,15.8868327 127.623352,15.8981458 127.952563,15.8981458 C129.795467,15.8981458 131.49017,15.2759252 132.84548,14.2147562 C131.112313,14.1785543 129.660842,13.0427188 129.160802,11.4803794 C129.404034,11.5165814 129.648397,11.5414702 129.902942,11.5414702 C130.258173,11.5414702 130.612273,11.4928239 130.941485,11.4079756 C129.135914,11.0414311 127.780604,9.4553342 127.780604,7.54002603 L127.780604,7.49137969 C128.305532,7.78325773 128.915308,7.96652998 129.562418,7.9914188 C128.501249,7.28321862 127.805493,6.07497933 127.805493,4.70948792 C127.805493,3.97753022 128.00121,3.30553197 128.342865,2.71951329 C130.283062,5.11223435 133.19958,6.67457373 136.470198,6.84427026 C136.407976,6.55126092 136.371774,6.24580717 136.371774,5.94035342 C136.371774,3.76936915 138.12983,2 140.313258,2 C141.447963,2 142.47293,2.47515028 143.193574,3.24444122 C144.083915,3.07361338 144.936923,2.74440211 145.694901,2.29300934 C145.401892,3.20823929 144.779671,3.97753022 143.961734,4.46399361 C144.755914,4.37914534 145.524073,4.15967117 146.232273,3.85421741 C145.694901,4.63482145 145.024034,5.33170853 144.255874,5.89283839 C144.268319,6.06366623 144.268319,6.23449407 144.268319,6.40645322 Z" id="Shape"></path>
            </g>
        </g>
    </g>
</svg>