<?xml version="1.0" encoding="UTF-8"?>
<svg width="29px" height="16px" viewBox="0 0 29 16" version="1.1" xmlns="http://www.w3.org/2000/svg" xmlns:xlink="http://www.w3.org/1999/xlink">
    <!-- Generator: Sketch 45 (43475) - http://www.bohemiancoding.com/sketch -->
    <title>Shape</title>
    <desc>Created with Sketch.</desc>
    <defs></defs>
    <g id="Page-1" stroke="none" stroke-width="1" fill="none" fill-rule="evenodd">
        <g id="Стартовая" transform="translate(-295.000000, -755.000000)" fill-rule="nonzero" fill="#C5D5E6">
            <g id="Соц" transform="translate(100.000000, 753.000000)">
                <path d="M223.282689,16.4497562 C223.248732,16.376574 223.217076,16.3158701 223.18767,16.2672354 C222.701118,15.3909413 221.771331,14.3153523 220.398871,13.0401615 L220.369874,13.0109602 L220.35535,12.9966408 L220.340673,12.9819635 L220.325945,12.9819635 C219.703052,12.38817 219.308605,11.9889154 219.143421,11.7845064 C218.84118,11.3951219 218.773469,11.0009814 218.938654,10.6016244 C219.055356,10.2998949 219.493734,9.66268311 220.252762,8.68911958 C220.652017,8.17316211 220.968219,7.75963925 221.201727,7.44809074 C222.885838,5.20915544 223.615973,3.77844613 223.391977,3.15540024 L223.304987,3.00980297 C223.246533,2.92214799 223.095668,2.84195953 222.852597,2.76882848 C222.608963,2.69585085 222.297568,2.68378167 221.917849,2.73241637 L217.712865,2.76146423 C217.644745,2.73732587 217.547476,2.73957606 217.42075,2.76882848 C217.294177,2.7980809 217.230865,2.81275825 217.230865,2.81275825 L217.157682,2.84932378 L217.099587,2.89325355 C217.050901,2.92230141 216.997357,2.97339086 216.938903,3.04641963 C216.880756,3.1191927 216.832121,3.2045975 216.793254,3.30191805 C216.335444,4.47973712 215.814935,5.5748107 215.230756,6.58708766 C214.870573,7.19070012 214.539795,7.71381727 214.237708,8.15674597 C213.936029,8.59952126 213.682935,8.92574712 213.478679,9.13486101 C213.274117,9.34417947 213.089499,9.51186949 212.923701,9.63854475 C212.758159,9.76527114 212.631791,9.81881535 212.544289,9.7992285 C212.456583,9.77964165 212.373991,9.76020822 212.295797,9.7407748 C212.15961,9.65311982 212.050066,9.53391109 211.967474,9.38304633 C211.884524,9.23218157 211.828679,9.04229654 211.799478,8.81354465 C211.77043,8.58463934 211.753246,8.38774805 211.748337,8.22220594 C211.743785,8.05686839 211.745882,7.82300245 211.755752,7.52127293 C211.765878,7.21938999 211.77043,7.01513445 211.77043,6.90804604 C211.77043,6.53809497 211.777641,6.13659015 211.792113,5.7034293 C211.806842,5.27026845 211.818758,4.92706391 211.82873,4.67422481 C211.838651,4.42113 211.843254,4.15335784 211.843254,3.87106175 C211.843254,3.58876566 211.826071,3.36737801 211.792113,3.20669426 C211.758565,3.04621507 211.707066,2.89044082 211.639203,2.73942264 C211.57093,2.58855788 211.471001,2.47185504 211.339877,2.38900727 C211.208497,2.30626179 211.045154,2.24059726 210.850768,2.19180913 C210.334811,2.07505515 209.677808,2.01189652 208.879452,2.00207752 C207.069024,1.9826441 205.905728,2.0995515 205.389822,2.35264631 C205.185413,2.45958129 205.000438,2.60568998 204.835049,2.79051209 C204.65979,3.00474005 204.635345,3.12164745 204.761867,3.14087632 C205.345995,3.22837787 205.759517,3.43769633 206.002896,3.76862713 L206.090602,3.94398824 C206.158823,4.07051007 206.226942,4.29450588 206.295113,4.61566882 C206.363181,4.93683177 206.407111,5.29210549 206.426442,5.68128542 C206.475026,6.39198629 206.475026,7.00035482 206.426442,7.50644216 C206.377705,8.01273406 206.331678,8.40687463 206.287749,8.68917072 C206.243819,8.97146681 206.178154,9.2002187 206.090602,9.37537524 C206.002896,9.55058292 205.944544,9.65767133 205.915292,9.69653818 C205.88609,9.73540503 205.861747,9.75990138 205.842416,9.76951581 C205.715895,9.8179971 205.58431,9.842698 205.448122,9.842698 C205.31173,9.842698 205.146342,9.77447645 204.951701,9.63813562 C204.757111,9.50179479 204.555156,9.31451793 204.345838,9.07599819 C204.136519,8.83742731 203.900454,8.50404176 203.637541,8.07579041 C203.374831,7.64753906 203.102252,7.14140058 202.819956,6.55737497 L202.586397,6.13382856 C202.44039,5.86135146 202.240942,5.46460272 201.987847,4.94394031 C201.734599,4.42307334 201.510757,3.91923619 201.316167,3.43253113 C201.238382,3.22812217 201.121526,3.07250134 200.965803,2.96541293 L200.892723,2.92148316 C200.844139,2.88261631 200.76615,2.84134584 200.659164,2.79736493 C200.552024,2.75343516 200.440231,2.72193255 200.323323,2.70255027 L196.322646,2.73159812 C195.913828,2.73159812 195.636441,2.82421374 195.490383,3.00918928 L195.43193,3.09669084 C195.402728,3.14542783 195.388,3.22326382 195.388,3.33040336 C195.388,3.43749177 195.417201,3.5689231 195.475655,3.72454394 C196.059681,5.09715754 196.694796,6.42093186 197.381,7.69607149 C198.067205,8.97121111 198.663504,9.99836998 199.16954,10.7766276 C199.675679,11.5554477 200.191585,12.2904915 200.717259,12.9814009 C201.242933,13.6725661 201.590894,14.1154948 201.761141,14.3100848 C201.931593,14.5050327 202.065479,14.6507834 202.162799,14.748104 L202.527892,15.0984682 C202.761502,15.3321296 203.104553,15.6119709 203.557199,15.9379922 C204.009947,16.2642181 204.511175,16.585381 205.061141,16.9019925 C205.61121,17.2180925 206.251132,17.4760457 206.981266,17.6755451 C207.711298,17.8752491 208.421846,17.9553865 209.113011,17.9167242 L210.792161,17.9167242 C211.132706,17.8873183 211.390711,17.7802299 211.566072,17.5954078 L211.624168,17.5222256 C211.663239,17.4641299 211.699805,17.3738667 211.733557,17.2524078 C211.767719,17.1307443 211.784698,16.9967048 211.784698,16.850903 C211.774725,16.4324195 211.806586,16.0552576 211.87941,15.7194685 C211.952183,15.3837816 212.035133,15.1306868 212.127902,14.9602352 C212.22062,14.789937 212.325254,14.6462319 212.441701,14.5297336 C212.558404,14.4129797 212.641559,14.3422522 212.690347,14.3179093 C212.738828,14.2934129 212.777541,14.2767922 212.806743,14.2668198 C213.040353,14.1889838 213.315285,14.2643651 213.631947,14.4933215 C213.948354,14.7220734 214.245123,15.0045229 214.522714,15.3402098 C214.800152,15.6762035 215.133486,16.0531608 215.522769,16.4716443 C215.912307,16.8902813 216.252903,17.2014718 216.544813,17.4061876 L216.836724,17.5813953 C217.031672,17.6983027 217.284767,17.8053911 217.596315,17.9027116 C217.907301,17.9999811 218.179778,18.024324 218.413747,17.9756893 L222.151459,17.917389 C222.521155,17.917389 222.80882,17.8561737 223.012871,17.7347148 C223.217332,17.6130513 223.33879,17.4790118 223.377964,17.33321 C223.417036,17.1872547 223.419132,17.0216615 223.38538,16.8365325 C223.350757,16.6518638 223.316647,16.5227338 223.282689,16.4497562 Z" id="Shape"></path>
            </g>
        </g>
    </g>
</svg>