<?xml version="1.0" encoding="utf-8"?>
<!-- Generator: Adobe Illustrator 16.0.4, SVG Export Plug-In . SVG Version: 6.00 Build 0)  -->
<!DOCTYPE svg PUBLIC "-//W3C//DTD SVG 1.1//EN" "http://www.w3.org/Graphics/SVG/1.1/DTD/svg11.dtd">
<svg version="1.1" id="Layer_1" xmlns="http://www.w3.org/2000/svg" xmlns:xlink="http://www.w3.org/1999/xlink" x="0px" y="0px"
	 width="20px" height="20px" viewBox="0 0 20 20" enable-background="new 0 0 20 20" xml:space="preserve">
<g>
	<path d="M20,10c0,5.523-4.479,10-10,10C4.478,20,0,15.523,0,10C0,4.478,4.478,0,10,0C15.521,0,20,4.478,20,10"/>
	<path fill="#FFFFFF" d="M14.65,7.02l-5.02,5.021c-0.281,0.28-0.736,0.28-1.018,0L5.793,9.22C5.395,8.823,4.742,8.782,4.334,9.167
		c-0.424,0.398-0.432,1.065-0.023,1.474l4.086,4.086c0.4,0.4,1.051,0.4,1.451,0l6.284-6.286c0.409-0.408,0.401-1.074-0.022-1.473
		C15.701,6.583,15.048,6.622,14.65,7.02"/>
</g>
</svg>
