<?xml version="1.0" encoding="utf-8"?>
<!-- Generator: Adobe Illustrator 16.0.4, SVG Export Plug-In . SVG Version: 6.00 Build 0)  -->
<!DOCTYPE svg PUBLIC "-//W3C//DTD SVG 1.0//EN" "http://www.w3.org/TR/2001/REC-SVG-20010904/DTD/svg10.dtd">
<svg version="1.0" id="Layer_1" xmlns="http://www.w3.org/2000/svg" xmlns:xlink="http://www.w3.org/1999/xlink" x="0px" y="0px"
	 width="24px" height="16.001px" viewBox="0 0 24 16.001" enable-background="new 0 0 24 16.001" xml:space="preserve">
<path fill="#FFFFFF" d="M0,1.335C0,0.445,0.445,0,1.334,0h21.33C23.555,0,24,0.445,24,1.335S23.555,2.67,22.664,2.67H1.334
	C0.445,2.67,0,2.225,0,1.335z"/>
<path fill="#FFFFFF" d="M0,8c0-0.889,0.445-1.334,1.334-1.334h21.33C23.555,6.666,24,7.111,24,8c0,0.891-0.445,1.336-1.336,1.336
	H1.334C0.445,9.336,0,8.891,0,8z"/>
<path fill="#FFFFFF" d="M0,14.666c0-0.89,0.445-1.334,1.334-1.334h21.33c0.891,0,1.336,0.444,1.336,1.334
	c0,0.891-0.445,1.335-1.336,1.335H1.334C0.445,16.001,0,15.557,0,14.666z"/>
<path fill="#FFFFFF" d="M0,1.335C0,0.445,0.445,0,1.334,0h21.33C23.555,0,24,0.445,24,1.335S23.555,2.67,22.664,2.67H1.334
	C0.445,2.67,0,2.225,0,1.335z"/>
<path fill="#FFFFFF" d="M0,8c0-0.889,0.445-1.334,1.334-1.334h21.33C23.555,6.666,24,7.111,24,8c0,0.891-0.445,1.336-1.336,1.336
	H1.334C0.445,9.336,0,8.891,0,8z"/>
<path fill="#FFFFFF" d="M0,14.666c0-0.89,0.445-1.334,1.334-1.334h21.33c0.891,0,1.336,0.444,1.336,1.334
	c0,0.891-0.445,1.335-1.336,1.335H1.334C0.445,16.001,0,15.557,0,14.666z"/>
<path fill="#FFFFFF" d="M0,1.335C0,0.445,0.445,0,1.334,0h21.33C23.555,0,24,0.445,24,1.335S23.555,2.67,22.664,2.67H1.334
	C0.445,2.67,0,2.225,0,1.335z"/>
<path fill="#FFFFFF" d="M0,8c0-0.889,0.445-1.334,1.334-1.334h21.33C23.555,6.666,24,7.111,24,8c0,0.891-0.445,1.336-1.336,1.336
	H1.334C0.445,9.336,0,8.891,0,8z"/>
<path fill="#FFFFFF" d="M0,14.666c0-0.89,0.445-1.334,1.334-1.334h21.33c0.891,0,1.336,0.444,1.336,1.334
	c0,0.891-0.445,1.335-1.336,1.335H1.334C0.445,16.001,0,15.557,0,14.666z"/>
</svg>
