<svg width="581" height="394" viewBox="0 0 581 394" xmlns="http://www.w3.org/2000/svg"><title>Сердце изометрия</title><defs><filter x="-3.9%" y="-2.3%" width="106.6%" height="110.5%" filterUnits="objectBoundingBox" id="a"><feOffset dx="-3" dy="6" in="SourceAlpha" result="shadowOffsetOuter1"/><feGaussianBlur stdDeviation="3.5" in="shadowOffsetOuter1" result="shadowBlurOuter1"/><feColorMatrix values="0 0 0 0 0 0 0 0 0 0 0 0 0 0 0 0 0 0 0.124745245 0" in="shadowBlurOuter1" result="shadowMatrixOuter1"/><feMerge><feMergeNode in="shadowMatrixOuter1"/><feMergeNode in="SourceGraphic"/></feMerge></filter><filter x="-5.3%" y="-4.5%" width="110.6%" height="112.5%" filterUnits="objectBoundingBox" id="b"><feOffset dy="4" in="SourceAlpha" result="shadowOffsetOuter1"/><feGaussianBlur stdDeviation="4" in="shadowOffsetOuter1" result="shadowBlurOuter1"/><feColorMatrix values="0 0 0 0 0 0 0 0 0 0 0 0 0 0 0 0 0 0 0.2 0" in="shadowBlurOuter1" result="shadowMatrixOuter1"/><feMerge><feMergeNode in="shadowMatrixOuter1"/><feMergeNode in="SourceGraphic"/></feMerge></filter><linearGradient x1="26.228%" y1="82.733%" x2="183.455%" y2="-64.694%" id="c"><stop stop-color="#E53656" offset="0%"/><stop stop-color="#6082D8" offset="100%"/></linearGradient><filter x="-20.4%" y="-14.9%" width="140.8%" height="136.4%" filterUnits="objectBoundingBox" id="d"><feOffset dy="3" in="SourceAlpha" result="shadowOffsetOuter1"/><feGaussianBlur stdDeviation="2" in="shadowOffsetOuter1" result="shadowBlurOuter1"/><feColorMatrix values="0 0 0 0 0 0 0 0 0 0 0 0 0 0 0 0 0 0 0.2 0" in="shadowBlurOuter1" result="shadowMatrixOuter1"/><feMerge><feMergeNode in="shadowMatrixOuter1"/><feMergeNode in="SourceGraphic"/></feMerge></filter><filter x="-12.5%" y="-7%" width="125%" height="123.4%" filterUnits="objectBoundingBox" id="e"><feOffset dy="3" in="SourceAlpha" result="shadowOffsetOuter1"/><feGaussianBlur stdDeviation="2" in="shadowOffsetOuter1" result="shadowBlurOuter1"/><feColorMatrix values="0 0 0 0 0 0 0 0 0 0 0 0 0 0 0 0 0 0 0.2 0" in="shadowBlurOuter1" result="shadowMatrixOuter1"/><feMerge><feMergeNode in="shadowMatrixOuter1"/><feMergeNode in="SourceGraphic"/></feMerge></filter><filter x="-12.5%" y="-7%" width="125%" height="123.4%" filterUnits="objectBoundingBox" id="f"><feOffset dy="3" in="SourceAlpha" result="shadowOffsetOuter1"/><feGaussianBlur stdDeviation="2" in="shadowOffsetOuter1" result="shadowBlurOuter1"/><feColorMatrix values="0 0 0 0 0 0 0 0 0 0 0 0 0 0 0 0 0 0 0.2 0" in="shadowBlurOuter1" result="shadowMatrixOuter1"/><feMerge><feMergeNode in="shadowMatrixOuter1"/><feMergeNode in="SourceGraphic"/></feMerge></filter><filter x="-7.7%" y="-4.8%" width="115.5%" height="116.1%" filterUnits="objectBoundingBox" id="g"><feOffset dy="3" in="SourceAlpha" result="shadowOffsetOuter1"/><feGaussianBlur stdDeviation="2" in="shadowOffsetOuter1" result="shadowBlurOuter1"/><feColorMatrix values="0 0 0 0 0 0 0 0 0 0 0 0 0 0 0 0 0 0 0.2 0" in="shadowBlurOuter1" result="shadowMatrixOuter1"/><feMerge><feMergeNode in="shadowMatrixOuter1"/><feMergeNode in="SourceGraphic"/></feMerge></filter><filter x="-7.7%" y="-4.8%" width="115.5%" height="116.1%" filterUnits="objectBoundingBox" id="h"><feOffset dy="3" in="SourceAlpha" result="shadowOffsetOuter1"/><feGaussianBlur stdDeviation="2" in="shadowOffsetOuter1" result="shadowBlurOuter1"/><feColorMatrix values="0 0 0 0 0 0 0 0 0 0 0 0 0 0 0 0 0 0 0.2 0" in="shadowBlurOuter1" result="shadowMatrixOuter1"/><feMerge><feMergeNode in="shadowMatrixOuter1"/><feMergeNode in="SourceGraphic"/></feMerge></filter><filter x="-8.4%" y="-5.8%" width="116.9%" height="119.2%" filterUnits="objectBoundingBox" id="i"><feOffset dy="3" in="SourceAlpha" result="shadowOffsetOuter1"/><feGaussianBlur stdDeviation="2" in="shadowOffsetOuter1" result="shadowBlurOuter1"/><feColorMatrix values="0 0 0 0 0 0 0 0 0 0 0 0 0 0 0 0 0 0 0.2 0" in="shadowBlurOuter1" result="shadowMatrixOuter1"/><feMerge><feMergeNode in="shadowMatrixOuter1"/><feMergeNode in="SourceGraphic"/></feMerge></filter><filter x="-7.9%" y="-5.4%" width="115.8%" height="117.9%" filterUnits="objectBoundingBox" id="j"><feOffset dy="3" in="SourceAlpha" result="shadowOffsetOuter1"/><feGaussianBlur stdDeviation="2" in="shadowOffsetOuter1" result="shadowBlurOuter1"/><feColorMatrix values="0 0 0 0 0 0 0 0 0 0 0 0 0 0 0 0 0 0 0.2 0" in="shadowBlurOuter1" result="shadowMatrixOuter1"/><feMerge><feMergeNode in="shadowMatrixOuter1"/><feMergeNode in="SourceGraphic"/></feMerge></filter><filter x="-7.9%" y="-5.4%" width="115.8%" height="117.9%" filterUnits="objectBoundingBox" id="k"><feOffset dy="3" in="SourceAlpha" result="shadowOffsetOuter1"/><feGaussianBlur stdDeviation="2" in="shadowOffsetOuter1" result="shadowBlurOuter1"/><feColorMatrix values="0 0 0 0 0 0 0 0 0 0 0 0 0 0 0 0 0 0 0.2 0" in="shadowBlurOuter1" result="shadowMatrixOuter1"/><feMerge><feMergeNode in="shadowMatrixOuter1"/><feMergeNode in="SourceGraphic"/></feMerge></filter></defs><g filter="url(#a)" transform="rotate(6 449.604 372.02)" fill="none" fill-rule="evenodd"><g filter="url(#b)" transform="translate(126.793 90.08)"><path d="M91.22 79.803c-24.417-3.558-49.9 2.401-67.652 17.58-31.472 28.352-30.925 75.466 1.247 103.945 39.368 32.233 106.225 23.706 207.517 11.4l24.452-2.873c2.24-.261 4.124-1.75 4.208-3.309l.926-17.082c3.786-70.32 6.3-116.342-33.068-148.575-32.172-28.48-81.993-36.847-113.466-15.703-17.751 12.737-26.34 33.57-24.164 54.617z" fill="#B74256"/><path d="M91.22 66.66c-24.417-3.557-49.9 2.402-67.652 17.582-31.472 28.351-30.925 75.465 1.247 103.944 39.368 32.233 106.225 23.706 207.517 11.4l24.452-2.873c2.24-.26 4.124-1.75 4.208-3.308l.926-17.083c3.786-70.32 6.3-116.342-33.068-148.575C196.678-.733 146.857-9.1 115.384 12.044 97.633 24.78 89.044 45.615 91.22 66.66z" fill="url(#c)"/></g><g filter="url(#d)" transform="rotate(-10 2004.673 -361.857)" stroke-width="10"><path d="M47.588 63.38c14.037-3.787 20.023-17.001 13.37-29.514-6.654-12.513-23.426-19.587-37.464-15.8C9.457 21.853 3.472 35.067 10.125 47.58c6.653 12.513 23.426 19.587 37.463 15.8z" stroke="#B74256"/><path d="M47.074 57.948c14.313-2.55 21.428-15.191 15.89-28.237-5.537-13.045-21.63-21.554-35.943-19.004-14.314 2.549-21.428 15.19-15.891 28.236 5.537 13.046 21.63 21.554 35.944 19.005z" stroke="#E73453"/></g><g filter="url(#e)" transform="rotate(-17 799.213 9.342)"><path d="M38.862 53.288c11.56-3.119 16.49-14 11.01-24.306-5.479-10.305-19.292-16.13-30.852-13.011-11.56 3.118-16.49 14-11.01 24.305 5.48 10.305 19.292 16.13 30.852 13.012z" fill="#B74256"/><path d="M39.758 48.113c11.787-2.1 17.647-12.51 13.086-23.254-4.56-10.743-17.813-17.75-29.6-15.65-11.788 2.099-17.647 12.51-13.087 23.253 4.56 10.743 17.813 17.75 29.6 15.651z" fill="#E73453"/></g><g filter="url(#f)" transform="rotate(-17 560.152 -1321.375)"><path d="M38.862 53.288c11.56-3.119 16.49-14 11.01-24.306-5.479-10.305-19.292-16.13-30.852-13.011-11.56 3.118-16.49 14-11.01 24.305 5.48 10.305 19.292 16.13 30.852 13.012z" fill="#B74256"/><path d="M31.5 49.793c11.672 2.673 21.133-4.62 21.133-16.292 0-11.67-9.461-23.3-21.132-25.972-11.671-2.674-21.133 4.62-21.133 16.291s9.462 23.3 21.133 25.973z" fill="url(#c)" transform="rotate(-23 31.5 28.66)"/></g><g filter="url(#g)" transform="translate(0 296.119)"><rect fill="#B74256" transform="rotate(-35 47.582 49.998)" x="4.311" y="28.866" width="86.541" height="42.264" rx="21.132"/><rect fill="#E73453" transform="rotate(-35 48.639 42.602)" x="5.368" y="21.47" width="86.541" height="42.264" rx="21.132"/></g><g filter="url(#h)" transform="translate(401.512 179.892)"><rect fill="#B74256" transform="rotate(-35 47.582 49.998)" x="4.311" y="28.866" width="86.541" height="42.264" rx="21.132"/><rect fill="url(#c)" transform="rotate(-35 48.639 42.602)" x="5.368" y="21.47" width="86.541" height="42.264" rx="21.132"/></g><g filter="url(#i)" transform="translate(233.51 324.647)"><rect fill="#B74256" transform="rotate(-35 43.885 42.155)" x="-.895" y="30.08" width="89.56" height="24.151" rx="12.076"/><rect fill="#E73453" transform="rotate(-35 44.942 35.816)" x=".161" y="23.74" width="89.56" height="24.151" rx="12.076"/></g><g filter="url(#j)" transform="translate(450.116 2.113)"><rect fill="#B74256" transform="rotate(-35 47.061 45.512)" x="-.486" y="32.304" width="95.095" height="26.415" rx="13.208"/><rect fill="url(#c)" transform="rotate(-35 48.118 38.115)" x=".57" y="24.908" width="95.095" height="26.415" rx="13.208"/></g><g filter="url(#k)" transform="translate(320.153)"><rect fill="#B74256" transform="rotate(-35 47.061 45.512)" x="-.486" y="32.304" width="95.095" height="26.415" rx="13.208"/><rect fill="url(#c)" transform="rotate(-35 48.118 38.115)" x=".57" y="24.908" width="95.095" height="26.415" rx="13.208"/></g></g></svg>