<svg width="18" height="18" viewBox="0 0 18 18" xmlns="http://www.w3.org/2000/svg"><title>Shape</title><defs><linearGradient x1="26.228%" y1="82.733%" x2="131.911%" y2="-17.138%" id="a"><stop stop-color="#E53656" offset="0%"/><stop stop-color="#6082D8" offset="100%"/></linearGradient></defs><path d="M223.257 5.39l4.61 4.61-4.61 4.61-.75-.748L226.37 10l-3.861-3.86.75-.75zM234 10c0 4.963-4.037 9-9 9s-9-4.037-9-9 4.037-9 9-9 9 4.037 9 9zm-1.059 0c0-4.38-3.562-7.941-7.941-7.941-4.38 0-7.941 3.562-7.941 7.941 0 4.38 3.562 7.941 7.941 7.941 4.38 0 7.941-3.562 7.941-7.941z" transform="translate(-216 -1)" fill="url(#a)"/></svg>