<svg xmlns="http://www.w3.org/2000/svg" width="41" height="56" viewBox="0 0 41 56">
    <g fill-rule="nonzero">
        <path d="M16.487 28.653H10.55V1.942h3.67a6.223 6.223 0 0 0 6.136 5.242 6.223 6.223 0 0 0 6.137-5.242h3.669v14.867a.97.97 0 0 0 1.942 0v-2.617l2.09 1.045a.967.967 0 0 0 1.227-.309l4.66-6.601a.971.971 0 0 0-.172-1.306L31.757.228A.967.967 0 0 0 31.132 0H9.578a.966.966 0 0 0-.625.23L.803 7.02A.97.97 0 0 0 .63 8.328l4.66 6.601a.971.971 0 0 0 1.227.309l2.09-1.045v15.432c0 .536.434.971.97.971h6.91a.97.97 0 1 0 0-1.942zm17.827-15.526l-2.211-1.106V3.044l5.873 4.895-3.662 5.188zM20.355 5.242a4.278 4.278 0 0 1-4.159-3.3h8.318a4.278 4.278 0 0 1-4.159 3.3zM6.396 13.127L2.734 7.939l5.874-4.895v8.977l-2.212 1.106z"/>
        <path d="M39.128 18.908h-19.52a.97.97 0 0 0-.971.97v34.21c0 .537.435.972.97.972h7.477a.97.97 0 0 0 .97-.917l1.314-23.657 1.315 23.657a.97.97 0 0 0 .97.917h7.475a.97.97 0 0 0 .971-.971v-34.21a.97.97 0 0 0-.97-.971zm-.97 4.114h-3.062V20.85h3.062v2.172zm-12.576 0V20.85h7.572v2.172h-7.572zM23.64 20.85v2.172H20.58V20.85h3.061zm8.931 32.268l-1.32-23.74a.97.97 0 0 0-.97-.918h-1.827a.97.97 0 0 0-.969.917l-1.32 23.74H20.58V24.965h17.579v28.154H32.57z"/>
    </g>
</svg>
