<svg xmlns="http://www.w3.org/2000/svg" width="18" height="18" viewBox="0 0 18 18">
    <defs>
        <linearGradient id="a" x1="26.228%" x2="131.911%" y1="82.733%" y2="-17.138%">
            <stop offset="0%" stop-color="#E53656"/>
            <stop offset="100%" stop-color="#6082D8"/>
        </linearGradient>
    </defs>
    <path fill="url(#a)" fill-rule="nonzero" d="M223.257 5.39l4.61 4.61-4.61 4.61-.75-.748L226.37 10l-3.861-3.86.75-.75zM234 10c0 4.963-4.037 9-9 9s-9-4.037-9-9 4.037-9 9-9 9 4.037 9 9zm-1.059 0c0-4.38-3.562-7.941-7.941-7.941-4.38 0-7.941 3.562-7.941 7.941 0 4.38 3.562 7.941 7.941 7.941 4.38 0 7.941-3.562 7.941-7.941z" transform="translate(-216 -1)"/>
</svg>
