<svg xmlns="http://www.w3.org/2000/svg" width="39" height="37" viewBox="0 0 39 37">
    <g fill-rule="nonzero">
        <path d="M28.814 6.783a5.449 5.449 0 0 1 3.282 3.286 1.078 1.078 0 1 0 2.034-.72 7.521 7.521 0 0 0-4.594-4.6 1.08 1.08 0 0 0-.722 2.034z"/>
        <path d="M18.94 36.554a1.086 1.086 0 0 0 1.033 0c12.28-6.698 18.905-17.718 18.905-24.685 0-6.545-5.324-11.868-11.869-11.868a11.914 11.914 0 0 0-10.763 6.86 1.078 1.078 0 1 0 1.955.912 9.751 9.751 0 0 1 8.808-5.614c5.355 0 9.71 4.355 9.71 9.71 0 6.335-6.444 16.4-17.263 22.503C8.637 28.27 2.193 18.204 2.193 11.87c0-5.355 4.357-9.71 9.71-9.71 1.352 0 2.66.271 3.889.809A1.08 1.08 0 1 0 16.656.99a11.785 11.785 0 0 0-4.753-.99C5.36 0 .035 5.324.035 11.869c0 6.967 6.626 17.987 18.904 24.685z"/>
    </g>
</svg>
