<svg xmlns="http://www.w3.org/2000/svg" width="33" height="40" viewBox="0 0 33 40">
    <path d="M32.336 12.753L29.54 31.727c-.278 1.44-.916 2.07-1.38 2.532-.449.447-.747.743-.747 2.195v2.37a1.177 1.177 0 0 1-2.353 0v-2.37c0-2.247.654-3.08 1.444-3.863.365-.363.584-.582.716-1.257l2.788-18.915c.042-.29.12-1.27-.643-1.377-.263-.037-.477.005-.647.134-.225.168-.385.492-.442.89l-1.17 7.802a1.178 1.178 0 0 1-1.835.79c-.117.02-.315-.053-.513-.183a1.171 1.171 0 0 1-.538-1.054l.67-12.437c.054-.655-.4-1.198-1.016-1.252a1.1 1.1 0 0 0-.814.256c-.231.193-.367.461-.393.756l-1.09 11.251c-.061.633-.562 1.092-1.25 1.061-.19-.011-.383-.023-.578-.025a1.179 1.179 0 0 1-1.153-1.156l-.27-14.397c0-.63-.495-1.125-1.102-1.125-.607 0-1.1.494-1.1 1.101l-.279 15.497c-.009.447-.268.851-.672 1.042-.146.07-.288.141-.422.216a1.162 1.162 0 0 1-1.12.02 1.184 1.184 0 0 1-.63-.93L11.79 6.76a1.11 1.11 0 0 0-.39-.767 1.158 1.158 0 0 0-.812-.257 1.096 1.096 0 0 0-.753.393c-.189.226-.28.513-.254.807l1.183 16.7c.038.512-.266.992-.746 1.178-.484.188-1.03.04-1.348-.365l-3.65-4.595c-.477-.8-1.322-1.023-1.976-.645-.32.186-.548.483-.642.838a1.35 1.35 0 0 0 .14 1.042l8.304 14.323c.189.327.497.555.864.644.527.128.899.6.899 1.144v1.624a1.177 1.177 0 0 1-2.353 0V38a3.689 3.689 0 0 1-1.445-1.407L.505 22.27a3.683 3.683 0 0 1-.376-2.829 3.73 3.73 0 0 1 6.83-.908l1.191 1.492-.915-12.901a3.457 3.457 0 0 1 3.146-3.732 3.423 3.423 0 0 1 2.534.8c.343.29.619.633.823 1.014l.033-1.772c0-1.887 1.55-3.435 3.454-3.435a3.46 3.46 0 0 1 3.454 3.456l.033 1.756c.207-.384.485-.73.83-1.021a3.474 3.474 0 0 1 5.692 2.96l-.124 2.3c.061-.053.127-.105.19-.155.678-.508 1.5-.705 2.396-.583 1.847.256 2.936 1.92 2.64 4.04z"/>
</svg>
