<svg xmlns="http://www.w3.org/2000/svg" width="40" height="33" viewBox="0 0 40 33">
    <path  fill-rule="nonzero" d="M3.68 0C1.67 0 .033 1.624.033 3.619H0v25.739c0 1.995 1.635 3.618 3.647 3.618h31.746v-3.894H40V0H3.68zm-.033 30.621c-.713 0-1.294-.567-1.294-1.266V6.807c.056.017.127.012.183.028.337.1.69.16 1.066.167.017 0 .029.007.045.007h29.395v7.142h-6.727c-2.028 0-3.677 1.583-3.677 3.529v2.353c0 1.946 1.65 3.53 3.677 3.53h6.727v7.058H3.647zm22.666-9.412c-.732 0-1.325-.527-1.325-1.176V17.68c0-.65.596-1.176 1.325-1.176h11.334v4.705H26.313zm11.334 5.518h-2.254v-3.165h2.254v3.165zm-2.254-12.576V4.656H3.68c-.642 0-1.294-.322-1.294-1.037A1.285 1.285 0 0 1 3.68 2.353h33.967V14.15h-2.254z"/>
</svg>
