<svg xmlns="http://www.w3.org/2000/svg" width="18" height="18" viewBox="0 0 18 18">
    <defs>
        <linearGradient id="a" x1="26.228%" x2="131.911%" y1="82.733%" y2="-17.138%">
            <stop offset="0%" stop-color="#E53656"/>
            <stop offset="100%" stop-color="#6082D8"/>
        </linearGradient>
    </defs>
    <g fill="url(#a)" fill-rule="evenodd" transform="translate(-247 -594)">
        <path fill-rule="nonzero" d="M265 603c0 4.963-4.037 9-9 9s-9-4.037-9-9 4.037-9 9-9 9 4.037 9 9zm-1.118-.059c0-4.38-3.562-7.941-7.94-7.941-4.38 0-7.942 3.562-7.942 7.941 0 4.38 3.562 7.941 7.941 7.941 4.38 0 7.941-3.562 7.941-7.94z"/>
        <path d="M255.5 598h1v10h-1z"/>
        <path d="M261 602.5v1h-10v-1z"/>
    </g>
</svg>
