<svg xmlns="http://www.w3.org/2000/svg" width="18" height="18" viewBox="0 0 18 18">
    <path fill="#C5D5E6" fill-rule="nonzero" d="M18 17.232l-5.608-5.607a7.012 7.012 0 0 0 1.701-4.579A7.055 7.055 0 0 0 7.046 0a7.01 7.01 0 0 0-4.984 2.063A7 7 0 0 0 0 7.046a7.055 7.055 0 0 0 7.046 7.047 7.015 7.015 0 0 0 4.58-1.7L17.234 18l.766-.768zM7.046 13.01a5.97 5.97 0 0 1-5.962-5.963A5.914 5.914 0 0 1 2.83 2.831a5.922 5.922 0 0 1 4.217-1.747 5.97 5.97 0 0 1 5.963 5.962 5.97 5.97 0 0 1-5.963 5.963z"/>
</svg>
