<svg xmlns="http://www.w3.org/2000/svg" width="20" height="16" viewBox="0 0 20 16">
    <path fill="#C5D5E6" fill-rule="nonzero" d="M17.268 4.406c0 5.21-3.966 11.214-11.214 11.214-2.234 0-4.308-.647-6.054-1.77.318.037.623.048.953.048a7.896 7.896 0 0 0 4.892-1.683A3.947 3.947 0 0 1 2.161 9.48c.243.037.487.061.742.061.355 0 .71-.048 1.038-.133.33-.085-3.16-1.953-3.16-3.868v-.049a3.989 3.989 0 0 0 1.781.5A3.94 3.94 0 0 1 .805 2.71c0-.731.196-1.403.538-1.99A11.196 11.196 0 0 0 9.47 4.845a4.372 4.372 0 0 1-.098-.904A3.94 3.94 0 0 1 13.313 0c1.135 0 2.16.475 2.88 1.244.89-.17 1.744-.5 2.502-.951a3.923 3.923 0 0 1-1.733 2.171 7.872 7.872 0 0 0 2.27-.61 8.498 8.498 0 0 1-1.976 2.039c.012.17.012.341.012.513z"/>
</svg>
