<svg xmlns="http://www.w3.org/2000/svg" width="131" height="56" viewBox="0 0 131 56">
    <g fill="#FFF" fill-rule="evenodd">
        <g transform="translate(12)">
            <circle cx="12.5" cy="12.5" r="12.5" opacity=".8"/>
            <circle cx="28.5" cy="12.5" r="12.5" opacity=".7"/>
        </g>
        <path fill-rule="nonzero" d="M118.688 4.814h-3.004c-.933 0-1.627.254-2.037 1.184l-5.773 13.074h4.083s.666-1.758.817-2.143l4.979.006c.116.498.474 2.137.474 2.137h3.607l-3.146-14.258zm-4.795 9.196c.32-.819 1.549-3.987 1.549-3.987-.021.039.317-.825.518-1.362l.262 1.23.901 4.119h-3.23zm-5.747.394c-.028 2.963-2.684 4.875-6.771 4.875-1.743-.018-3.422-.361-4.332-.76l.547-3.193.501.228c1.277.532 2.104.747 3.661.747 1.117 0 2.313-.438 2.325-1.393.007-.625-.501-1.07-2.016-1.77-1.476-.683-3.43-1.827-3.405-3.876.021-2.773 2.729-4.708 6.571-4.708 1.506 0 2.713.31 3.483.599l-.526 3.092-.351-.165a7.178 7.178 0 0 0-2.91-.546c-1.522 0-2.228.634-2.228 1.227-.008.668.824 1.108 2.184 1.77 2.247 1.015 3.284 2.252 3.267 3.873zM74 4.962l.05-.286h6.028c.813.031 1.468.29 1.694 1.159l1.311 6.304C81.795 8.842 78.691 6.099 74 4.962zm17.581-.15l-6.123 14.239-4.114.007-3.482-11.897c2.503 1.602 4.635 4.144 5.386 5.914l.406 1.469 3.808-9.729 4.119-.003zm1.572-.012h3.89L94.61 19.066h-3.888L93.153 4.8z"/>
        <text font-family=".AppleSystemUIFont" font-size="12" transform="translate(-1)">
            <tspan x="0" y="53">Карта Visa/MasterCard</tspan>
        </text>
    </g>
</svg>
