<svg xmlns="http://www.w3.org/2000/svg" width="29" height="16" viewBox="0 0 29 16">
    <path fill="#C5D5E6" fill-rule="nonzero" d="M28.283 14.45a1.92 1.92 0 0 0-.095-.183c-.487-.876-1.417-1.952-2.79-3.227l-.043-.043c-.652-.609-1.046-1.008-1.212-1.212-.302-.39-.37-.784-.204-1.183.116-.302.555-.94 1.314-1.913.399-.516.715-.93.949-1.24 1.684-2.24 2.414-3.67 2.19-4.294l-.087-.145c-.058-.088-.21-.168-.452-.241-.244-.073-.555-.085-.935-.037l-4.205.03a.546.546 0 0 0-.292.007l-.19.044-.073.036-.058.044a.649.649 0 0 0-.161.153 1.002 1.002 0 0 0-.146.256 23.842 23.842 0 0 1-1.562 3.285c-.36.604-.691 1.127-.993 1.57-.302.443-.555.769-.76.978-.204.21-.389.377-.554.504-.166.126-.292.18-.38.16a10.7 10.7 0 0 1-.248-.058.97.97 0 0 1-.329-.358 1.602 1.602 0 0 1-.168-.57 6.278 6.278 0 0 1-.05-.59c-.005-.166-.003-.4.007-.702.01-.302.014-.506.014-.613 0-.37.008-.771.022-1.205l.037-1.029c.01-.253.014-.52.014-.803 0-.282-.017-.504-.05-.664a2.273 2.273 0 0 0-.154-.468.787.787 0 0 0-.3-.35 1.687 1.687 0 0 0-.488-.197c-.516-.117-1.173-.18-1.972-.19-1.81-.02-2.973.098-3.49.35-.204.108-.389.254-.554.439-.175.214-.2.33-.073.35.584.087.998.297 1.24.628l.089.175c.068.127.136.35.204.672.068.32.112.676.131 1.065.049.711.049 1.32 0 1.825-.048.507-.094.9-.138 1.183-.044.282-.11.511-.197.686a2.895 2.895 0 0 1-.176.322.251.251 0 0 1-.073.073 1.094 1.094 0 0 1-.394.073c-.136 0-.302-.069-.496-.205a3.503 3.503 0 0 1-.606-.562 7.514 7.514 0 0 1-.708-1 17.453 17.453 0 0 1-.818-1.519l-.234-.423c-.146-.273-.345-.67-.598-1.19a22.944 22.944 0 0 1-.672-1.511.962.962 0 0 0-.35-.468L5.893.921a1 1 0 0 0-.234-.124 1.55 1.55 0 0 0-.336-.094l-4 .029c-.41 0-.687.092-.833.277l-.058.088a.472.472 0 0 0-.044.233c0 .107.03.239.088.395A48.186 48.186 0 0 0 2.38 5.696c.686 1.275 1.283 2.302 1.789 3.08a36.376 36.376 0 0 0 1.547 2.205 32.32 32.32 0 0 0 1.044 1.33c.17.194.304.34.402.437l.365.35c.234.234.577.514 1.03.84.452.326.953.647 1.503.964.55.316 1.19.574 1.92.774.73.2 1.44.28 2.132.24h1.68c.34-.029.598-.136.773-.32l.058-.074a.968.968 0 0 0 .11-.27c.034-.121.05-.255.05-.401-.01-.419.023-.796.095-1.132.073-.335.156-.588.249-.759a1.866 1.866 0 0 1 .562-.642.953.953 0 0 1 .117-.051c.233-.078.508-.003.825.226.316.23.613.512.89.847.278.336.611.713 1 1.132.39.418.73.73 1.023.934l.292.175c.195.117.448.224.76.322.31.097.583.121.817.073l3.737-.059c.37 0 .658-.06.862-.182.204-.122.326-.256.365-.402a1.13 1.13 0 0 0 .007-.496 1.833 1.833 0 0 0-.102-.387z"/>
</svg>
